<svg xmlns="http://www.w3.org/2000/svg" viewBox="0 0 728 388" font-family="system-ui,-apple-system,Segoe UI,Roboto,sans-serif" role="img" aria-label="Tessera Area-Board: grouped by floor, per role a Floor and Area column, double marker, expandable entities">
  <rect width="728" height="388" rx="10" fill="#111318"/>
  <rect x="12" y="10" width="704" height="368" rx="12" fill="#1f2229" stroke="#34383f"/>
  <text x="30" y="40" fill="#e3e5e8" font-size="16" font-weight="600">Tessera Matrix</text>

  <line x1="12" y1="54" x2="716" y2="54" stroke="#34383f"/>
  <text x="252" y="76" fill="#9aa0a6" font-size="13" font-weight="600" text-anchor="middle">ground_user</text>
  <text x="488" y="76" fill="#9aa0a6" font-size="13" font-weight="600" text-anchor="middle">upper_user</text>
  <text x="30" y="104" fill="#9aa0a6" font-size="12">Area</text>
  <text x="196" y="104" fill="#7d838a" font-size="11">Floor</text>
  <text x="312" y="104" fill="#7d838a" font-size="11">Area</text>
  <text x="432" y="104" fill="#7d838a" font-size="11">Floor</text>
  <text x="548" y="104" fill="#7d838a" font-size="11">Area</text>
  <line x1="12" y1="112" x2="716" y2="112" stroke="#34383f"/>

  <!-- Basement floor row -->
  <rect x="12" y="112" width="704" height="40" fill="#181b21"/>
  <rect x="30" y="123" width="4" height="18" rx="2" fill="#03a9f4"/>
  <text x="42" y="137" fill="#e3e5e8" font-size="13" font-weight="600">Basement</text>
  <text x="112" y="137" fill="#9aa0a6" font-size="11">· floor</text>
  <rect x="158" y="120" width="76" height="24" rx="8" fill="#ff9800"/><text x="196" y="137" fill="#3a2600" font-size="12" text-anchor="middle">read</text>
  <rect x="394" y="120" width="76" height="24" rx="8" fill="none" stroke="#34383f"/><text x="432" y="137" fill="#7d838a" font-size="12" text-anchor="middle">none</text>

  <!-- Cellar (area) -->
  <text x="52" y="181" fill="#e3e5e8" font-size="13">▸ Cellar</text>
  <rect x="158" y="164" width="76" height="24" rx="8" fill="none" stroke="#ff9800" stroke-dasharray="3 3"/><text x="196" y="181" fill="#ff9800" font-size="12" text-anchor="middle">read</text>
  <rect x="274" y="164" width="76" height="24" rx="8" fill="none" stroke="#34383f"/><text x="312" y="181" fill="#7d838a" font-size="12" text-anchor="middle">none</text>
  <rect x="394" y="164" width="76" height="24" rx="8" fill="none" stroke="#34383f" stroke-dasharray="3 3"/><text x="432" y="181" fill="#7d838a" font-size="12" text-anchor="middle">none</text>
  <rect x="510" y="164" width="76" height="24" rx="8" fill="none" stroke="#34383f"/><text x="548" y="181" fill="#7d838a" font-size="12" text-anchor="middle">none</text>
  <line x1="12" y1="196" x2="716" y2="196" stroke="#25282e"/>

  <!-- Ground floor row -->
  <rect x="12" y="196" width="704" height="40" fill="#181b21"/>
  <rect x="30" y="207" width="4" height="18" rx="2" fill="#03a9f4"/>
  <text x="42" y="221" fill="#e3e5e8" font-size="13" font-weight="600">Ground</text>
  <text x="98" y="221" fill="#9aa0a6" font-size="11">· floor</text>
  <rect x="158" y="204" width="76" height="24" rx="8" fill="#4caf50"/><text x="196" y="221" fill="#0c2810" font-size="12" text-anchor="middle">control</text>
  <rect x="394" y="204" width="76" height="24" rx="8" fill="none" stroke="#34383f"/><text x="432" y="221" fill="#7d838a" font-size="12" text-anchor="middle">none</text>

  <!-- Living room (area, double) -->
  <text x="52" y="265" fill="#e3e5e8" font-size="13">▸ Living room</text>
  <rect x="158" y="248" width="76" height="24" rx="8" fill="none" stroke="#4caf50" stroke-dasharray="3 3"/><text x="196" y="265" fill="#4caf50" font-size="12" text-anchor="middle">control</text>
  <rect x="273" y="247" width="78" height="26" rx="8" fill="#4caf50" stroke="#f44336" stroke-width="2"/><text x="312" y="265" fill="#0c2810" font-size="12" text-anchor="middle">control</text>
  <text x="312" y="286" fill="#f44336" font-size="10" text-anchor="middle">double</text>
  <rect x="394" y="248" width="76" height="24" rx="8" fill="none" stroke="#34383f" stroke-dasharray="3 3"/><text x="432" y="265" fill="#7d838a" font-size="12" text-anchor="middle">none</text>
  <rect x="510" y="248" width="76" height="24" rx="8" fill="none" stroke="#34383f"/><text x="548" y="265" fill="#7d838a" font-size="12" text-anchor="middle">none</text>
  <line x1="12" y1="292" x2="716" y2="292" stroke="#25282e"/>

  <!-- Bathroom (area, expanded) -->
  <text x="52" y="313" fill="#e3e5e8" font-size="13">▾ Bathroom</text>
  <rect x="158" y="296" width="76" height="24" rx="8" fill="none" stroke="#4caf50" stroke-dasharray="3 3"/><text x="196" y="313" fill="#4caf50" font-size="12" text-anchor="middle">control</text>
  <rect x="274" y="296" width="76" height="24" rx="8" fill="none" stroke="#34383f"/><text x="312" y="313" fill="#7d838a" font-size="12" text-anchor="middle">none</text>
  <rect x="12" y="324" width="704" height="42" fill="#15181d"/>
  <text x="52" y="341" fill="#7d838a" font-size="10" letter-spacing="0.5">3 ENTITIES · INHERIT THE AREA RIGHT</text>
  <rect x="52" y="347" width="120" height="16" rx="5" fill="#1f2229" stroke="#34383f"/><text x="60" y="359" fill="#9aa0a6" font-size="10" font-family="monospace">light.bath_ceiling</text>
  <rect x="180" y="347" width="122" height="16" rx="5" fill="#1f2229" stroke="#34383f"/><text x="188" y="359" fill="#9aa0a6" font-size="10" font-family="monospace">switch.bath_mirror</text>
  <rect x="310" y="347" width="106" height="16" rx="5" fill="#1f2229" stroke="#34383f"/><text x="318" y="359" fill="#9aa0a6" font-size="10" font-family="monospace">cover.bath_blind</text>

  <rect x="470" y="36" width="14" height="12" rx="3" fill="#ff9800"/><text x="490" y="46" fill="#9aa0a6" font-size="11">read</text>
  <rect x="536" y="36" width="14" height="12" rx="3" fill="#4caf50"/><text x="556" y="46" fill="#9aa0a6" font-size="11">control</text>
  <rect x="620" y="36" width="14" height="12" rx="3" fill="none" stroke="#f44336" stroke-width="2"/><text x="640" y="46" fill="#9aa0a6" font-size="11">double</text>
</svg>
